<?xml version="1.0" encoding="UTF-8" standalone="no"?>
<!-- Created with Inkscape (http://www.inkscape.org/) -->
<svg xmlns="http://www.w3.org/2000/svg" width="655" height="655">
  <defs>
  </defs>
  <path d="M 6.6565194,648.34349 L 6.6565194,6.6565194 L 648.34349,6.6565194 L 648.34349,648.34349 L 6.6565194,648.34349 z" style="font-size:16px;fill:#000000;stroke:none;marker-start:none;marker-end:none;font-family:Times New Roman" />
  <g style="fill:#333333">
  <path d="M 502.74445,647.247 L 535.63637,621.88696 L 544.63579,633.79901 L 526.26154,648.0747 L 503.57207,648.34349 L 502.74445,647.247 z M 545.23731,648.34349 L 550.65958,644.25618 L 553.74399,648.34349 L 545.23731,648.34349 z" />
  <path d="M 564.05312,648.34349 L 541.05651,617.81247 L 574.21506,592.81295 L 583.20169,604.725 L 564.61412,618.74683 L 571.81109,628.31017 L 589.23826,615.18217 L 597.87933,626.63984 L 580.46496,639.76783 L 586.92815,648.34349 L 564.05312,648.34349 z M 592.22883,648.34349 L 608.14793,636.36317 L 617.08122,648.31575 L 592.22883,648.34349 z" />
  <path d="M 643.98989,628.05631 L 601.77858,572.04366 L 616.34744,561.04037 L 648.34349,603.50904 L 648.34349,624.78392 L 643.98989,628.05631 z" />
  <path d="M 634.84329,572.80523 C 626.33661,561.52035 627.71244,550.77092 640.02451,541.48917 C 643.13453,539.15113 646.05897,537.4424 648.82343,536.38644 L 647.92967,551.06318 C 644.64475,553.50787 645.08415,557.00641 647.79529,560.4388 L 648.36908,581.19315 C 643.76378,580.71316 639.14143,578.53513 634.84329,572.80523 z" />
  <path d="M 346.12809,648.34349 L 342.81757,643.9362 L 376.00173,618.94734 L 384.98836,630.87433 L 366.40079,644.88335 L 369.00313,648.34349 L 346.12809,648.34349 z M 381.69063,648.34349 L 391.01214,641.31871 L 396.31282,648.34349 L 381.69063,648.34349 z" />
  <path d="M 406.59635,648.34349 L 381.39627,614.88778 L 414.56763,589.88613 L 423.55638,601.8003 L 404.95388,615.82214 L 412.16365,625.39829 L 429.59083,612.25749 L 438.21696,623.72796 L 420.80472,636.83036 L 429.20475,647.96803 L 448.4877,633.43849 L 457.47432,645.36334 L 453.50894,648.34349 L 406.59635,648.34349 z" />
  <path d="M 484.32965,625.11883 L 442.11835,569.11897 L 456.71281,558.14128 L 498.91131,614.13901 L 484.32965,625.11883 z" />
  <path d="M 493.29068,595.37711 L 491.8082,593.39959 L 506.68422,583.77012 C 510.54294,588.87283 513.81507,589.13949 516.63286,587.00198 C 519.59783,584.77273 519.5445,581.11208 517.24718,578.05514 C 508.91328,566.99639 490.1508,589.74107 475.19585,569.89548 C 466.68917,558.59567 468.065,547.84624 480.37708,538.57729 C 493.07524,529.00115 502.45008,530.17655 511.49216,542.16967 L 497.08328,551.46423 C 494.37214,547.83131 490.96564,546.08205 488.13505,548.21955 C 484.98451,550.58319 485.42392,554.08171 487.30742,556.57975 C 495.64132,567.6385 515.41701,544.26666 530.82843,564.73942 C 539.81505,576.66641 536.86502,587.25584 523.98982,596.93864 C 511.91877,606.04761 502.0512,606.98197 493.29068,595.37711 z" />
  <path d="M 549.04271,576.35922 L 506.8314,520.34655 L 540.01556,495.34705 L 549.00218,507.27189 L 530.41462,521.28093 L 537.62439,530.85707 L 555.03877,517.72907 L 563.66491,529.18887 L 546.23772,542.30193 L 563.6265,565.36659 L 549.04271,576.35922 z" />
  <path d="M 587.6086,547.28519 L 545.42503,491.28534 L 578.58145,466.28583 L 587.57021,478.21068 L 568.96771,492.2069 L 576.19241,501.78304 L 593.60466,488.65505 L 602.24572,500.11485 L 584.81855,513.22792 L 593.21858,524.36774 L 612.50152,509.82326 L 621.48814,521.76304 L 587.6086,547.28519 z" />
  <path d="M 648.34349,501.51639 L 606.14497,445.51868 L 620.71384,434.52605 L 648.34349,471.1859 L 648.34349,501.51639 z" />
  <path d="M 639.20969,446.29304 C 630.7158,434.99536 632.07884,424.25659 644.3909,414.96205 L 648.70398,412.06297 L 648.27736,453.6122 C 645.17801,452.42186 642.12132,450.16488 639.20969,446.29304 z" />
  <path d="M 193.50486,631.5015 C 206.20515,621.92536 215.59279,623.10077 224.63487,635.09388 L 210.22599,644.38844 C 207.48713,640.75766 204.09555,639.02121 201.26497,641.13097 C 198.55384,643.18743 198.50051,646.05878 199.72916,648.34349 L 182.92911,648.34349 C 183.15734,642.34693 186.61505,636.69596 193.50486,631.5015 z" />
  <path d="M 246.40071,648.34349 L 219.97411,613.27292 L 253.14547,588.27127 L 262.1193,600.19824 L 243.5424,614.20728 L 250.75431,623.78342 L 268.16868,610.65328 L 276.79482,622.11308 L 259.38043,635.22828 L 269.25015,648.34349 L 246.40071,648.34349 z" />
  <path d="M 300.75131,640.20941 L 258.54,584.2117 L 291.72416,559.21005 L 300.69799,571.12423 L 282.12322,585.13326 L 289.33513,594.70728 L 306.73457,581.57927 L 315.36071,593.03907 L 297.96126,606.15426 L 306.34635,617.29195 L 325.64423,602.7624 L 334.64366,614.67445 L 300.75131,640.20941 z" />
  <path d="M 361.4862,594.45554 L 319.25996,538.45569 L 333.86935,527.45241 L 376.08279,583.45012 L 361.4862,594.45554 z" />
  <path d="M 370.46002,564.69889 L 368.99034,562.73631 L 383.86636,553.09403 C 387.71228,558.20955 390.97162,558.46341 393.8022,556.3387 C 396.77997,554.08171 396.73943,550.42319 394.41652,547.37692 C 386.09755,536.32032 367.33507,559.06285 352.37799,539.21725 C 343.85851,527.93238 345.24714,517.18083 357.54642,507.89906 C 370.25952,498.31013 379.63435,499.50048 388.6743,511.49359 L 374.25262,520.78813 C 371.54148,517.16802 368.13711,515.41877 365.30439,517.54347 C 362.16665,519.90712 362.58046,523.40564 364.48956,525.90366 C 372.82346,536.97308 392.57355,513.60337 408.01057,534.07614 C 416.99933,545.97539 414.03436,556.57975 401.17408,566.27536 C 389.08811,575.38433 379.22054,576.30588 370.46002,564.69889 z" />
  <path d="M 426.21205,545.681 L 384.01354,489.68327 L 417.1849,464.66883 L 426.17365,476.5958 L 407.58396,490.60484 L 414.79587,500.16818 L 432.20811,487.05297 L 440.84917,498.49785 L 423.42199,511.62585 L 440.80864,534.69051 L 426.21205,545.681 z" />
  <path d="M 464.79287,516.60699 L 422.57943,460.62206 L 455.75079,435.62254 L 464.75235,447.52179 L 446.14985,461.54362 L 453.36176,471.11976 L 470.77614,457.97896 L 479.40227,469.43663 L 461.98789,482.56464 L 470.38791,493.68951 L 489.68366,479.15996 L 498.67242,491.07203 L 464.79287,516.60699 z" />
  <path d="M 525.51283,470.84031 L 483.31432,414.84258 L 497.89811,403.84997 L 540.09662,459.84768 L 525.51283,470.84031 z" />
  <path d="M 534.47385,441.09858 L 533.00416,439.13387 L 547.88019,429.49159 C 551.72612,434.60711 554.99825,434.86097 557.81602,432.72345 C 560.79379,430.49422 560.7554,426.83357 558.44314,423.77663 C 550.11138,412.71788 531.3489,435.46255 516.39182,415.61696 C 507.87235,404.31714 509.26097,393.56772 521.57304,384.29875 C 534.27334,374.72261 543.64818,375.89804 552.68812,387.89115 L 538.26644,397.18571 C 535.55532,393.55278 532.16374,391.80353 529.31822,393.95383 C 526.18047,396.29187 526.60922,399.8032 528.49059,402.31403 C 536.83729,413.38558 556.60231,389.98812 572.0244,410.4609 C 581.01315,422.38788 578.04818,432.97731 565.18792,442.67292 C 553.10194,451.78189 543.23436,452.70345 534.47385,441.09858 z" />
  <path d="M 590.22588,422.06576 L 548.02738,366.08296 L 581.19873,341.08131 L 590.18748,353.0083 L 571.59778,367.00453 L 578.80969,376.57854 L 596.22194,363.43774 L 604.863,374.91035 L 587.43583,388.02341 L 604.80968,411.08807 L 590.22588,422.06576 z" />
  <path d="M 628.79391,393.01947 L 586.60819,337.00895 L 619.76676,312.0073 L 628.75337,323.93429 L 610.15088,337.94331 L 617.37559,347.50452 L 634.78996,334.38933 L 643.4289,345.83632 L 626.00172,358.9494 L 634.41454,370.0892 L 648.34349,359.60429 L 648.34349,378.3022 L 628.79391,393.01947 z" />
  <path d="M 33.859549,628.57683 C 46.557722,618.98788 55.932562,620.1761 64.987432,632.16921 L 50.578552,641.46377 C 47.839692,637.83299 44.448109,636.09651 41.617529,638.21909 C 38.464849,640.58274 38.893599,644.08126 40.789899,646.59209 L 45.009109,648.34349 L 23.403249,648.34349 C 22.481769,641.22483 25.873349,634.60111 33.859549,628.57683 z M 54.383952,648.34349 C 60.687172,646.9526 68.005732,644.45671 75.083252,648.34349 L 54.383952,648.34349 z" />
  <path d="M 88.943942,648.34349 L 60.326682,610.36104 L 93.485242,585.34658 L 102.48466,597.27357 L 83.897092,611.2826 L 91.094072,620.8438 L 108.50844,607.72861 L 117.14738,619.18841 L 99.720212,632.28868 L 111.80617,648.34349 L 88.943942,648.34349 z" />
  <path d="M 141.09109,637.28473 L 98.892572,581.28701 L 132.06393,556.28536 L 141.05055,568.19741 L 122.46299,582.22137 L 129.65996,591.78258 L 147.08714,578.66952 L 155.71327,590.11438 L 138.30102,603.24238 L 146.69892,614.36726 L 165.984,599.85052 L 174.97062,611.74977 L 141.09109,637.28473 z" />
  <path d="M 201.82596,591.52872 L 159.61252,535.5182 L 174.19632,524.52772 L 216.40763,580.52544 L 201.82596,591.52872 z" />
  <path d="M 210.78485,561.77421 L 209.3173,559.81161 L 224.18053,550.18215 C 228.05204,555.28488 231.29858,555.53872 234.11637,553.40122 C 237.10693,551.15704 237.0664,547.51131 234.75629,544.43945 C 226.42238,533.39562 207.64711,556.12538 192.70496,536.29258 C 184.18548,524.99491 185.55918,514.24334 197.87339,504.97439 C 210.57154,495.40038 219.94639,496.56086 229.00127,508.58171 L 214.59238,517.86346 C 211.85352,514.21773 208.44915,512.49407 205.63136,514.63159 C 202.50641,516.9675 202.90742,520.46815 204.80373,522.99178 C 213.1355,534.0484 232.90052,510.66376 248.33753,531.13865 C 257.32416,543.07844 254.3592,553.66787 241.50105,563.35068 C 229.42787,572.45964 219.53257,573.3812 210.78485,561.77421 z" />
  <path d="M 266.53902,542.74351 L 224.34051,486.74578 L 257.51187,461.75908 L 266.49849,473.65833 L 247.91093,487.68016 L 255.1335,497.24351 L 272.53507,484.1283 L 281.16121,495.57317 L 263.76177,508.70116 L 281.13561,531.76582 L 266.53902,542.74351 z" />
  <path d="M 305.11771,513.68229 L 262.9064,457.69738 L 296.07776,432.68292 L 305.06439,444.60991 L 286.47682,458.61894 L 293.70152,468.18229 L 311.10096,455.06708 L 319.7271,466.49914 L 302.32765,479.63994 L 310.71489,490.77976 L 330.01062,476.23528 L 339.01005,488.16013 L 305.11771,513.68229 z" />
  <path d="M 365.86539,467.92843 L 323.62635,411.91578 L 338.25067,400.93809 L 380.44919,456.923 L 365.86539,467.92843 z" />
  <path d="M 374.82641,438.15898 L 373.35673,436.20917 L 388.23488,426.56691 C 392.08081,431.68244 395.33801,431.92348 398.16859,429.79877 C 401.14636,427.56954 401.09303,423.90889 398.78292,420.85194 C 390.45114,409.79318 371.70146,432.53786 356.74438,412.69227 C 348.22491,401.39247 349.60074,390.65584 361.92561,381.37408 C 374.6259,371.79794 384.00074,372.97336 393.04069,384.97927 L 378.61901,394.27383 C 375.88228,390.64303 372.5035,388.89163 369.67292,391.01636 C 366.53304,393.3928 366.96179,396.87852 368.84315,399.38935 C 377.17706,410.44809 396.95487,387.06345 412.37696,407.53621 C 421.36572,419.4632 418.38796,430.05264 405.52768,439.73543 C 393.45451,448.8572 383.58692,449.77876 374.82641,438.15898 z" />
  <path d="M 430.58058,419.15601 L 388.37994,363.15829 L 421.5513,338.15664 L 430.54005,350.06868 L 411.95035,364.07772 L 419.16226,373.65386 L 436.56171,360.52586 L 445.20277,371.98566 L 427.78839,385.09872 L 445.16224,408.1634 L 430.58058,419.15601 z" />
  <path d="M 469.15926,390.09479 L 426.94796,334.08214 L 460.11932,309.08262 L 469.10594,321.00747 L 450.51624,335.00371 L 457.72815,344.57985 L 475.1276,331.46464 L 483.78146,342.91165 L 466.35429,356.03965 L 474.75431,367.19012 L 494.05218,352.63284 L 503.03881,364.55983 L 469.15926,390.09479 z" />
  <path d="M 529.87922,344.32599 L 487.68071,288.31547 L 502.2645,277.32286 L 544.46301,333.33551 L 529.87922,344.32599 z" />
  <path d="M 538.85304,314.55867 L 537.35776,312.60888 L 552.23378,302.9666 C 556.10744,308.09492 559.36463,308.32106 562.18242,306.21128 C 565.16231,303.95431 565.12179,300.30858 562.81168,297.2495 C 554.49057,286.17795 535.7153,308.93542 520.75822,289.08983 C 512.23873,277.79216 513.61456,267.0534 525.94158,257.77164 C 538.63973,248.1955 548.00177,249.37092 557.05452,261.37683 L 542.63284,270.66072 C 539.92171,267.04059 536.51732,265.29134 533.68675,267.41392 C 530.5618,269.79249 530.97561,273.27821 532.85698,275.78904 C 541.20368,286.84567 560.96871,263.47382 576.378,283.93377 C 585.37955,295.86076 582.41458,306.45232 569.55431,316.14793 C 557.46834,325.24196 547.60076,326.16352 538.85304,314.55867 z" />
  <path d="M 594.59441,295.55357 L 552.38096,239.55585 L 585.58006,214.5414 L 594.55388,226.48119 L 575.96418,240.47741 L 583.17608,250.03863 L 600.60326,236.93836 L 609.21659,248.38322 L 591.80222,261.49843 L 609.17607,284.54815 L 594.59441,295.55357 z" />
  <path d="M 633.1603,266.49235 L 590.96179,210.48183 L 624.13315,185.48018 L 633.11977,197.40716 L 614.53007,211.41619 L 621.75478,220.97954 L 639.15636,207.86435 L 647.79529,219.30921 L 630.36811,232.43721 L 638.76814,243.57488 L 648.34349,236.36452 L 648.34349,255.06029 L 633.1603,266.49235 z" />
  <path d="M 18.260419,606.60866 L 6.6565194,591.20874 L 6.7909094,561.05316 L 24.256479,547.9913 L 32.884749,559.4383 L 15.470369,572.56631 L 23.870399,583.71677 L 43.153339,569.1595 L 52.139962,581.08649 L 18.260419,606.60866 z M 6.6565194,546.26977 L 6.6565194,527.55907 L 9.2332794,525.60928 L 18.222019,537.54907 L 6.6565194,546.26977 z" />
  <path d="M 79.008102,560.85265 L 36.783989,504.84213 L 51.378462,493.8495 L 93.576962,549.84935 L 79.008102,560.85265 z" />
  <path d="M 87.956322,531.08532 L 86.486642,529.13554 L 101.34987,519.50605 C 105.22139,524.62158 108.48072,524.86051 111.28571,522.73793 C 114.27627,520.48095 114.23574,516.83524 111.92563,513.77615 C 103.59385,502.7046 84.831382,525.46208 69.861502,505.6293 C 61.354822,494.33163 62.730652,483.58006 75.042732,474.2855 C 87.743012,464.70936 97.115732,465.89758 106.15781,477.90349 L 91.748932,487.18524 C 89.024992,483.56725 85.631282,481.83079 82.813502,483.94058 C 79.675752,486.31915 80.089562,489.80487 81.973072,492.3285 C 90.319772,503.37231 110.08266,480.00046 125.50688,500.46043 C 134.49349,512.38742 131.53067,522.97898 118.67039,532.67459 C 106.59722,541.76862 96.716852,542.69018 87.956322,531.08532 z" />
  <path d="M 143.70836,512.08023 L 101.50985,456.0825 L 134.68121,431.06806 L 143.66783,442.99503 L 125.09306,457.00407 L 132.29004,466.56528 L 149.70442,453.46502 L 158.33054,464.90988 L 140.9183,478.01229 L 158.29215,501.0748 L 143.70836,512.08023 z" />
  <path d="M 182.27425,483.01901 L 140.07574,427.00849 L 173.2471,402.00684 L 182.23586,413.93382 L 163.64616,427.93006 L 170.87086,437.5062 L 188.27031,424.391 L 196.89857,435.83586 L 179.497,448.96387 L 187.88422,460.10154 L 207.17997,445.55921 L 216.16658,457.47126 L 182.27425,483.01901 z" />
  <path d="M 243.00913,437.25234 L 200.81062,381.23969 L 215.39228,370.2492 L 257.60572,426.25972 L 243.00913,437.25234 z" />
  <path d="M 251.98295,407.49568 L 250.50047,405.5331 L 265.3637,395.89082 C 269.23735,401.01916 272.49455,401.2602 275.31233,399.13549 C 278.30289,396.87852 278.24957,393.2328 275.95439,390.16092 C 267.60769,379.11711 248.83241,401.85965 233.90093,382.01406 C 225.38145,370.72919 226.75728,359.97975 239.05655,350.69586 C 251.76965,341.12185 261.12955,342.28235 270.18443,354.30318 L 255.77555,363.58494 C 253.05162,359.95201 249.64511,358.21556 246.82732,360.35306 C 243.68958,362.70391 244.1034,366.18963 245.9869,368.71326 C 254.3336,379.77202 274.08368,356.38522 289.52071,376.86013 C 298.50733,388.78498 295.5445,399.38935 282.68422,409.07215 C 270.61105,418.18112 260.71574,419.10268 251.98295,407.49568 z" />
  <path d="M 307.72218,388.46499 L 265.52368,332.46727 L 298.69503,307.46562 L 307.68166,319.4054 L 289.09409,333.38883 L 296.3188,342.96497 L 313.71825,329.84978 L 322.34438,341.29464 L 304.94493,354.42265 L 322.31878,377.48731 L 307.72218,388.46499 z" />
  <path d="M 346.32861,359.4187 L 304.1045,303.40605 L 337.28866,278.40653 L 346.27528,290.33139 L 327.67279,304.35535 L 334.88469,313.89096 L 352.31186,300.78856 L 360.938,312.23342 L 343.53855,325.36143 L 351.92365,336.50125 L 371.22152,321.96956 L 380.20814,333.88374 L 346.32861,359.4187 z" />
  <path d="M 407.05069,313.6499 L 364.85005,257.65219 L 379.43384,246.64676 L 421.63235,302.65941 L 407.05069,313.6499 z" />
  <path d="M 416.02451,283.89538 L 414.54203,281.93066 L 429.41806,272.30332 C 433.26398,277.4039 436.53611,277.67056 439.35389,275.52026 C 442.33165,273.27821 442.27833,269.63036 439.98102,266.56062 C 431.64712,255.51467 412.88464,278.25934 397.92969,258.41375 C 389.42301,247.11395 390.7839,236.37731 403.11091,227.09556 C 415.80907,217.53222 425.18391,218.70762 434.22599,230.70074 L 419.8171,239.9825 C 417.09105,236.36452 413.68667,234.61525 410.86889,236.73783 C 407.71835,239.11427 408.15775,242.61493 410.04126,245.11082 C 418.36022,256.16958 438.15084,232.78493 453.56227,253.25769 C 462.54889,265.19748 459.58392,275.78904 446.72364,285.46971 C 434.65261,294.57868 424.78289,295.50024 416.02451,283.89538 z" />
  <path d="M 471.76374,264.87748 L 429.56524,208.86483 L 462.7366,183.87812 L 471.72322,195.79017 L 453.14845,209.80134 L 460.35822,219.37535 L 477.75981,206.24734 L 486.39873,217.6922 L 468.97156,230.83513 L 486.35821,253.88487 L 471.76374,264.87748 z" />
  <path d="M 510.34244,235.81626 L 468.13113,179.80574 L 501.31529,154.80409 L 510.30404,166.74388 L 491.70155,180.74012 L 498.91131,190.31626 L 516.33849,177.17333 L 524.96462,188.64593 L 507.55238,201.76112 L 515.93748,212.89881 L 535.23536,198.35433 L 544.22198,210.29411 L 510.34244,235.81626 z" />
  <path d="M 571.06451,190.04747 L 528.87881,134.04975 L 543.44767,123.04645 L 585.65898,179.05697 L 571.06451,190.04747 z" />
  <path d="M 580.05114,160.28015 L 578.55586,158.33035 L 593.43188,148.70088 C 597.29061,153.8164 600.56273,154.05532 603.38052,151.93274 C 606.34549,149.68857 606.30495,146.03005 604.00764,142.98377 C 595.67588,131.89943 576.89846,154.6697 561.94351,134.82411 C 553.43683,123.52644 554.81266,112.77487 567.12474,103.49312 C 579.8229,93.931908 589.19774,95.107328 598.23982,107.0855 L 583.83094,116.38219 C 581.11981,112.76208 577.7133,111.01281 574.88271,113.13539 C 571.74497,115.51397 572.17159,119.01249 574.05508,121.51051 C 582.38898,132.56714 602.15187,109.19529 617.58889,129.65525 C 626.56272,141.58224 623.59775,152.17381 610.73747,161.88221 C 598.65363,170.96344 588.78392,171.8978 580.05114,160.28015 z" />
  <path d="M 635.77758,141.28785 L 593.57906,85.277328 L 626.76322,60.275674 L 635.73704,72.202648 L 617.14948,86.211688 L 624.35926,95.775038 L 641.78643,82.659828 L 648.34349,91.367748 L 648.34349,95.668358 L 632.98538,107.23271 L 648.34349,127.5988 L 648.34349,131.8205 L 635.77758,141.28785 z" />
  <path d="M 648.34349,77.704298 L 632.14495,56.203314 L 648.34349,44.009664 L 648.34349,77.704298 z" />
  <path d="M 22.626809,480.09434 L 6.6565194,458.90052 L 6.6565194,428.54443 L 11.210629,434.57937 L 28.622879,421.46631 L 37.263939,432.92398 L 19.836759,446.02638 L 28.236789,457.17686 L 47.532532,442.63452 L 56.506362,454.55938 L 22.626809,480.09434 z M 6.6565194,423.02786 L 6.6565194,404.31714 L 13.599669,399.06935 L 22.588419,411.00914 L 6.6565194,423.02786 z" />
  <path d="M 83.374492,434.32766 L 41.163179,378.32781 L 55.744852,367.32453 L 97.945492,423.33505 L 83.374492,434.32766 z" />
  <path d="M 92.335522,404.571 L 90.840242,402.60842 L 105.71626,392.97894 C 109.57498,398.08167 112.84711,398.34832 115.6649,396.2108 C 118.64267,393.96664 118.60213,390.30812 116.29202,387.24904 C 107.96025,376.19243 89.197772,398.93496 74.240692,379.08937 C 65.721212,367.80449 67.097042,357.05293 79.409122,347.78611 C 92.109412,338.19717 101.48425,339.37259 110.5242,351.3785 L 96.115322,360.66025 C 93.404182,357.02734 89.999812,355.29088 87.167092,357.42839 C 84.029352,359.77922 84.455962,363.27775 86.339462,365.78859 C 94.686162,376.8324 114.44905,353.46055 129.87327,373.94825 C 138.84709,385.8603 135.89706,396.45187 123.03678,406.14748 C 110.95081,415.25643 101.0683,416.1908 92.335522,404.571 z" />
  <path d="M 148.07475,385.55311 L 105.87624,329.54259 L 139.0476,304.55587 L 148.03635,316.46792 L 129.44666,330.47695 L 136.65857,340.0403 L 154.07081,326.92509 L 162.69908,338.36997 L 145.28469,351.51076 L 162.65854,374.56263 L 148.07475,385.55311 z" />
  <path d="M 186.64277,356.4791 L 144.44213,300.48138 L 177.61349,275.48186 L 186.60225,287.4067 L 168.02535,301.41574 L 175.23725,310.99188 L 192.6367,297.85108 L 201.26497,309.30875 L 183.85059,322.43675 L 192.26341,333.57655 L 211.53356,319.03208 L 220.53512,330.95907 L 186.64277,356.4791 z" />
  <path d="M 247.37553,310.72522 L 205.17701,254.7275 L 219.7608,243.72209 L 261.97211,299.7198 L 247.37553,310.72522 z" />
  <path d="M 256.33655,280.97069 L 254.86686,279.00598 L 269.73009,269.37864 C 273.60374,274.47923 276.86094,274.73309 279.67872,272.61051 C 282.65649,270.36633 282.6181,266.70568 280.30584,263.66154 C 271.97408,252.58999 253.1988,275.34746 238.26945,255.48908 C 229.73504,244.2042 231.12367,233.45263 243.42295,224.17087 C 256.13604,214.60752 265.49808,215.78295 274.55082,227.76327 L 260.14194,237.05783 C 257.41802,233.43984 254.01364,231.68844 251.19585,233.81315 C 248.05597,236.18959 248.47192,239.68811 250.36822,242.18615 C 258.69999,253.2449 278.46501,229.86024 293.8871,250.34581 C 302.87585,262.25999 299.92369,272.84943 287.05062,282.54504 C 274.97957,291.64119 265.09706,292.57555 256.33655,280.97069 z" />
  <path d="M 312.08858,261.9528 L 269.89007,205.95508 L 303.06143,180.95343 L 312.05018,192.88042 L 293.47328,206.88945 L 300.6852,216.4656 L 318.08463,203.32267 L 326.7129,214.78245 L 309.29853,227.91045 L 326.68517,250.97512 L 312.08858,261.9528 z" />
  <path d="M 350.695,232.89159 L 308.47089,176.89386 L 341.66785,151.89221 L 350.64167,163.80641 L 332.04131,177.81543 L 339.26388,187.38944 L 356.67826,174.26145 L 365.30439,185.72123 L 347.90495,198.83644 L 356.29217,209.96132 L 375.58792,195.42965 L 384.56174,207.35663 L 350.695,232.89159 z" />
  <path d="M 411.41709,187.12278 L 369.20365,131.11226 L 383.80023,120.13457 L 425.99874,176.1323 L 411.41709,187.12278 z" />
  <path d="M 420.4037,157.36827 L 418.90843,155.40567 L 433.77165,145.76339 C 437.64317,150.89173 440.9025,151.13065 443.73308,149.02086 C 446.69805,146.76389 446.64472,143.10537 444.3474,140.0591 C 436.0007,128.98755 417.25316,151.74502 402.29608,131.88664 C 393.7894,120.60176 395.15029,109.8374 407.4773,100.56845 C 420.1776,90.992288 429.5503,92.182638 438.59238,104.17575 L 424.1835,113.47031 C 421.45957,109.82459 418.05306,108.08813 415.23527,110.21071 C 412.08473,112.58928 412.52415,116.075 414.40765,118.57091 C 422.72661,129.64246 442.50443,106.27061 457.92866,126.7455 C 466.91528,138.65755 463.95031,149.24912 451.07724,158.95754 C 439.019,168.05156 429.13649,168.97313 420.4037,157.36827 z" />
  <path d="M 476.13014,138.36318 L 433.93163,82.339838 L 467.11579,57.338184 L 476.07682,69.277978 L 457.50204,83.287008 L 464.72675,92.850358 L 482.1262,79.735148 L 490.75233,91.180028 L 473.34008,104.29522 L 490.72673,127.35988 L 476.13014,138.36318 z" />
  <path d="M 514.70883,109.28915 L 472.49752,53.291414 L 505.68168,28.291912 L 514.67043,40.203964 L 496.06794,54.212974 L 503.29264,63.789134 L 520.70489,50.661134 L 529.31822,62.118804 L 511.91877,75.221208 L 520.306,86.371688 L 539.60175,71.829338 L 548.58837,83.754188 L 514.70883,109.28915 z" />
  <path d="M 575.43091,63.507544 L 533.8062,7.0959704 L 555.42698,6.6565194 L 590.02538,52.529854 L 575.43091,63.507544 z" />
  <path d="M 584.40473,33.765824 L 582.92225,31.803227 L 597.79827,22.173758 C 601.65699,27.276488 604.92912,27.543143 607.74691,25.405622 C 610.71188,23.163575 610.67135,19.502926 608.36123,16.445987 C 600.04227,5.4000304 581.26699,28.129782 565.69558,7.4842234 L 624.35926,6.6565194 C 630.19533,17.258749 626.61604,26.674907 615.1188,35.355094 C 603.02003,44.464044 593.15031,45.372814 584.40473,33.765824 z" />
  <path d="M 640.15677,14.747917 L 634.05405,6.6565194 L 648.34349,6.6565194 L 648.34349,8.5913784 L 640.15677,14.747917 z" />
  <path d="M 7.0703394,369.13992 L 6.9508894,343.15056 C 14.107329,352.64779 13.787369,361.19356 7.0703394,369.13992 z" />
  <path d="M 25.246219,354.88982 L 6.6565194,330.22309 L 6.6565194,299.867 L 13.827909,309.37702 L 31.240149,296.26181 L 39.868419,307.70668 L 22.454029,320.82188 L 39.827879,343.88654 L 25.246219,354.88982 z M 6.6565194,299.78806 L 6.6565194,281.07736 L 16.216939,273.86485 L 25.205689,285.80464 L 6.6565194,299.78806 z" />
  <path d="M 63.812112,325.8158 L 21.613599,269.81808 L 54.797762,244.81858 L 63.771582,256.73062 L 45.181889,270.73964 L 52.393802,280.3158 L 69.820972,267.1878 L 78.447102,278.64547 L 61.019922,291.74786 L 69.432752,302.89835 L 88.717832,288.356 L 97.704452,300.28084 L 63.812112,325.8158 z" />
  <path d="M 124.54487,280.04913 L 82.346362,224.04929 L 96.930152,213.05879 L 139.14146,269.05651 L 124.54487,280.04913 z" />
  <path d="M 133.51869,250.30741 L 132.05114,248.34269 L 146.91436,238.70042 C 150.76029,243.80315 154.03028,244.06981 156.84806,241.93229 C 159.82796,239.68811 159.78744,236.02959 157.49012,232.97052 C 149.14342,221.92669 130.38094,244.65645 115.42385,224.82578 C 106.91931,213.52598 108.293,202.77654 120.59229,193.50759 C 133.30538,183.91865 142.68022,185.09406 151.72016,197.09999 L 137.31128,206.38173 C 134.58736,202.74882 131.18297,201.01235 128.35239,203.14987 C 125.21251,205.5007 125.64126,208.99922 127.53756,211.51005 C 135.86932,222.5816 155.63434,199.19696 171.07137,219.66972 C 180.04519,231.58177 177.09302,242.18615 164.21995,251.88175 C 152.13612,260.99071 142.2664,261.91227 133.51869,250.30741 z" />
  <path d="M 189.26005,231.27458 L 147.07434,175.27687 L 180.2457,150.26241 L 189.21953,162.1894 L 170.62982,176.19842 L 177.84173,185.77458 L 195.26891,172.64657 L 203.89504,184.10424 L 186.46787,197.21944 L 203.85452,220.29689 L 189.26005,231.27458 z" />
  <path d="M 227.83875,202.21551 L 185.64023,146.20284 L 218.81159,121.21614 L 227.79821,133.12818 L 209.21065,147.15214 L 216.40763,156.71336 L 233.8348,143.58536 L 242.46094,155.03022 L 225.04868,168.15822 L 233.44658,179.29804 L 252.73166,164.75356 L 261.71828,176.68055 L 227.83875,202.21551 z" />
  <path d="M 288.57363,156.4467 L 246.36018,100.44898 L 260.95678,89.443548 L 303.15529,145.4562 L 288.57363,156.4467 z" />
  <path d="M 297.53251,126.69218 L 296.06496,124.72745 L 310.92819,115.10011 C 314.78692,120.20071 318.04624,120.45455 320.86403,118.33198 C 323.85459,116.075 323.81406,112.42715 321.50395,109.37021 C 313.17004,98.311458 294.39477,121.05614 279.43982,101.22334 C 270.93314,89.925668 272.30684,79.174098 284.62105,69.892348 C 297.3192,60.329004 306.69405,61.504424 315.74892,73.497548 L 301.32511,82.779288 C 298.60118,79.161308 295.2096,77.412058 292.39182,79.547428 C 289.25407,81.898258 289.65509,85.396778 291.55138,87.907608 C 299.89808,98.979158 319.64818,75.594518 335.08519,96.067278 C 344.09955,107.98148 341.12178,118.57091 328.24871,128.26652 C 316.16275,137.38827 306.28023,138.30983 297.53251,126.69218 z" />
  <path d="M 353.31227,107.67429 L 311.08817,51.676554 L 344.27233,26.687702 L 353.25895,38.586954 L 334.67138,52.610914 L 341.89608,62.187054 L 359.29553,49.044124 L 367.92167,60.516724 L 350.52222,73.631938 L 367.89607,96.696598 L 353.31227,107.67429 z" />
  <path d="M 391.8803,78.613068 L 349.68179,22.615339 L 370.86103,6.6565194 L 389.66191,6.6565194 L 391.82697,9.5129424 L 373.23727,23.536903 L 380.46198,33.113044 L 397.86143,19.985039 L 406.48969,31.442711 L 389.08811,44.557904 L 397.48814,55.682794 L 416.78389,41.166054 L 425.77264,53.078104 L 391.8803,78.613068 z" />
  <path d="M 452.61305,32.844259 L 432.85016,6.6565194 L 455.7252,6.6565194 L 467.18191,21.853775 L 452.61305,32.844259 z" />
  <path d="M 464.11243,6.6565194 L 487.2669,6.6565194 C 478.52131,13.145854 470.94892,13.133059 464.11243,6.6565194 z" />
  <path d="M 7.7913194,246.32678 L 6.7631694,211.92391 C 8.3395194,213.16546 9.8881194,214.74193 11.411129,216.74505 C 19.582929,227.58834 17.861529,237.3522 7.7913194,246.32678 z" />
  <path d="M 29.612619,228.34991 L 6.6565194,197.88714 L 6.6565194,157.86318 L 20.585469,147.35266 L 29.572089,159.26473 L 10.982379,173.27374 L 18.194299,182.84988 L 35.608669,169.73469 L 44.234809,181.17955 L 26.820429,194.29476 L 44.207079,217.37222 L 29.612619,228.34991 z" />
  <path d="M 68.178512,199.27589 L 25.979999,143.27817 L 59.164152,118.27865 L 68.150782,130.20351 L 49.550412,144.21253 L 56.760192,153.78867 L 74.187362,140.66068 L 82.813502,152.10554 L 65.388462,165.24847 L 73.786352,176.37336 L 93.084222,161.84168 L 102.07084,173.74093 L 68.178512,199.27589 z" />
  <path d="M 128.91339,153.53482 L 86.712752,97.524298 L 101.29654,86.518878 L 143.49505,142.5166 L 128.91339,153.53482 z" />
  <path d="M 137.88721,123.7675 L 136.40473,121.8177 L 151.28076,112.17544 C 155.12668,117.28883 158.39881,117.52988 161.21659,115.4073 C 164.19435,113.16312 164.16663,109.51742 161.84371,106.44554 C 153.52474,95.386778 134.74734,118.13146 119.79239,98.285868 C 111.28571,87.000988 112.66154,76.249428 124.95868,66.967674 C 137.67177,57.391514 147.04661,58.579734 156.08869,70.572848 L 141.6798,79.854618 C 138.95375,76.236628 135.54937,74.500158 132.71878,76.622748 C 129.59384,78.986378 130.00765,82.472108 131.90396,84.982938 C 140.25066,96.054488 160.00074,72.669838 175.42497,93.142608 C 184.41159,105.0696 181.45941,115.66116 168.60128,125.34183 C 156.50251,134.4508 146.6328,135.37236 137.88721,123.7675 z" />
  <path d="M 193.63924,104.7496 L 151.42794,48.751884 L 184.6121,23.750231 L 193.59872,35.662274 L 174.99622,49.686244 L 182.20812,59.247454 L 199.6353,46.134374 L 208.26143,57.579254 L 190.84919,70.694448 L 208.22091,93.756978 L 193.63924,104.7496 z" />
  <path d="M 232.20514,75.675578 L 189.99383,19.690664 L 207.29942,6.6565194 L 232.11128,6.6565194 L 213.56425,20.612211 L 220.77401,30.188368 L 238.1884,17.073159 L 246.82732,28.518035 L 229.41508,41.646024 L 237.80018,52.770914 L 257.09806,38.241364 L 266.08468,50.153414 L 232.20514,75.675578 z" />
  <path d="M 292.92721,29.919566 L 275.39339,6.6565194 L 298.26842,6.6565194 L 307.52168,18.929082 L 292.92721,29.919566 z" />
  <path d="M 312.39574,6.6565194 L 320.62299,6.6565194 C 317.75188,8.8857714 315.01301,8.9390984 312.39574,6.6565194 z" />
  <path d="M 6.6565194,122.43208 L 6.6565194,93.264198 L 20.664389,111.85331 L 6.6565194,122.43208 z" />
  <path d="M 15.056549,93.089278 L 13.574059,91.126678 L 28.450089,81.497208 C 32.296019,86.612738 35.580949,86.866598 38.398729,84.729078 C 41.376489,82.487048 41.323159,78.839188 39.013049,75.769438 C 32.402669,67.021004 19.235229,79.506898 6.6031894,75.140138 L 7.0447394,33.044774 C 17.326129,27.223143 25.418999,29.492927 33.258029,39.909564 L 18.849149,49.191314 C 16.138019,45.558404 12.731499,43.821944 9.9009194,45.933864 C 6.7631694,48.310304 7.1897894,51.796024 9.0732994,54.319654 C 17.419999,65.365594 37.170079,41.993744 52.594312,62.466524 C 61.580932,74.393498 58.615962,84.982938 45.770619,94.665748 C 33.684649,103.78752 23.802139,104.69627 15.056549,93.089278 z" />
  <path d="M 70.808582,74.071388 L 28.597269,18.073658 L 43.754859,6.6565194 L 68.564592,6.6565194 L 52.167692,18.995222 L 59.377462,28.571363 L 76.804652,15.456171 L 85.430772,26.90103 L 68.018532,40.029034 L 85.392382,63.080884 L 70.808582,74.071388 z" />
  <path d="M 109.37448,45.012294 L 80.450052,6.6565194 L 112.28612,6.6565194 L 106.58442,10.955005 L 114.97165,22.107618 L 134.2674,7.5631584 L 143.25402,19.477336 L 109.37448,45.012294 z" />
  </g>
  <g style="fill:#ffffff;stroke:none;stroke-width:6.24100018">
  <path d="M 542.24675,401.79351 L 542.24675,344.46038 L 484.93118,344.46038 L 484.93118,316.34847 L 542.24675,316.34847 L 542.24675,259.02813 L 570.36914,259.02813 L 570.36914,316.34847 L 627.68471,316.34847 L 627.68471,344.46038 L 570.36914,344.46038 L 570.36914,401.79351 L 542.24675,401.79351 z" />
  <path d="M 118.36323,553.8812 L 118.36323,229.00481 L 45.770619,229.00481 L 45.770619,165.71566 L 52.967592,165.71566 C 76.764112,165.71566 95.648182,160.82626 109.65604,151.01118 C 123.65111,141.22171 131.75677,129.72352 133.96024,116.51445 L 219.14648,116.51445 L 219.14648,553.8812 L 118.36323,553.8812 z" />
  <path d="M 296.89259,555.06942 C 278.5034,547.49852 263.40127,535.37101 251.60967,518.7701 C 239.81806,502.1969 233.91585,481.6964 233.91585,457.28352 L 233.91585,405.98748 C 233.91585,386.00749 240.40466,368.90098 253.41211,354.6893 C 266.59235,340.29416 282.89752,332.00008 302.29992,329.79645 L 302.29992,325.60248 C 280.70687,322.0101 263.89401,313.20832 251.9019,299.1993 C 239.89698,285.00254 233.91585,265.61132 233.91585,240.99793 L 233.91585,208.30378 C 233.91585,193.52038 236.79977,180.51185 242.60811,169.30804 C 248.40366,157.91651 256.69703,147.91371 267.50104,139.31246 C 278.30289,130.72401 289.894,124.11307 302.29992,119.5202 C 320.5014,112.92208 343.09701,109.61128 370.11233,109.61128 C 413.89998,109.61128 446.09652,118.91863 466.68917,137.50986 C 487.27969,156.11178 497.59095,179.51137 497.60375,207.70435 L 497.60375,245.20468 C 497.60375,260.00302 495.18698,272.19452 490.39184,281.7984 C 485.78441,291.40014 477.38438,300.70963 465.1939,309.7098 C 453.21457,318.69717 441.28858,324.20095 429.49698,326.19126 L 429.49698,329.79645 C 446.29703,331.59903 459.98494,336.20685 470.58842,343.59215 C 481.39242,350.78972 488.5894,358.80433 492.18149,367.59118 C 495.8013,376.39295 497.60375,388.98551 497.60375,405.39871 L 497.60375,457.28352 C 497.60375,487.29404 487.98787,511.78584 468.79878,530.79093 C 444.58845,554.78995 408.90646,566.77027 361.7123,566.77027 C 337.10095,566.77027 315.49509,562.8707 296.89259,555.06942 z M 385.72426,487.89347 C 390.70498,482.47291 393.20067,474.60548 393.20067,464.18884 L 393.20067,391.88458 C 393.20067,383.09561 391.21265,375.89804 387.20675,370.28974 C 383.19871,364.70702 375.81402,361.90181 365.01216,361.90181 C 356.99822,361.90181 350.81659,364.29318 346.40966,369.09939 C 342.00274,373.69439 339.81208,380.99862 339.81208,390.98862 L 339.81208,468.68999 C 339.81208,477.67737 342.00274,484.48881 346.40966,489.09663 C 351.00216,493.50392 357.7064,495.67983 366.50745,495.67983 C 374.30594,495.67983 380.70302,493.07514 385.72426,487.89347 z M 385.72426,293.20274 C 389.70244,288.99597 391.69259,281.59788 391.70539,271.0063 L 391.70539,204.7114 C 391.70539,194.30756 389.60858,186.92226 385.40217,182.51498 C 381.21069,177.9221 374.80082,175.62459 366.21308,175.61178 C 358.01356,175.61178 351.50984,178.01596 346.72962,182.80935 C 342.10939,187.60489 339.81208,194.7214 339.81208,204.11197 L 339.81208,271.0063 C 339.81208,281.20963 341.92169,288.50106 346.1153,292.89555 C 350.50942,297.1151 357.19873,299.1993 366.21308,299.1993 C 375.21463,299.1993 381.70343,297.19617 385.72426,293.20274 z" />
  <path d="M 508.7533,631.66151 L 508.7533,598.32739 L 498.23087,598.32739 L 498.23087,593.37185 L 525.4595,593.37185 L 525.4595,598.32739 L 514.93707,598.32739 L 514.93707,631.66151 L 508.7533,631.66151 z M 529.87922,631.66151 L 529.87922,593.37185 L 539.6956,593.37185 L 549.33708,621.85922 L 558.71191,593.37185 L 568.35339,593.37185 L 568.35339,631.66151 L 562.15682,631.66151 L 562.06297,601.51872 L 551.36562,631.66151 L 546.31878,631.66151 L 536.15684,601.51872 L 536.07579,631.66151 L 529.87922,631.66151 z" />
  </g>
  <path d="M 6.6565194,648.34349 L 6.6565194,6.6565194 L 648.34349,6.6565194 L 648.34349,648.34349 L 6.6565194,648.34349 z" style="stroke:#000000;stroke-width:13.31303883;fill:none" />
</svg>
